/* XPM */
static char *de45d9302c3e4b68cb116737bfdb7f58kQbMTRYA3X8RdXTc[] = {
/* columns rows colors chars-per-pixel */
"64 64 18 1 ",
"  c gray23",
". c #3E3E3E",
"X c gray26",
"o c gray27",
"O c #4B4B4B",
"+ c #4E4E4E",
"@ c #535353",
"# c #555555",
"$ c #5A5A5A",
"% c #5D5D5D",
"& c #606060",
"* c #676767",
"= c #6A6A6A",
"- c #6C6C6C",
"; c gray44",
": c gray46",
"> c gray48",
", c gray50",
/* pixels */
":-&@+@@@+#@+O@%+++++OXoX. .oO+##$@@####@@+OOO++o+$oOOoOO+++@++%>",
"&$@@+++@@@@+O+#@OOOoo..XXXoO+O+&##@@+++##+OOOOooX.oO+oOO+O++OO%-",
"+@+OO+++++@+++++OOOoXXXXXXo+OO+##@+OO+@#@+OO+ooXooOOO++++++ooo@&",
"#+OOO+OO+O+++O+OoOooXoooOOoOOO+##+OOoOO++OoOOoXoOO+O++@+++OoOO+#",
"@+OooOOOOO++OOo@O+OooOoOOoOoO@$@@OOOOOOOOOOooOOOOOOO+@@#+OOOOO@@",
"++OOOOOO+@@++O++##OOO%OOooooOO&;+OoOOOO+++ooXoOOoOO+@+++OOOOO@@#",
"++OOoOO+@@+OOOO@#@++OOOooXXoO+#&:ooOOO++++OoOO+++OO++@++++@@+@+@",
"OOOoooO@++OOO+OOOO+OOOoOOoO+@@@$-ooOO++@@+O++++@OOO+O$O+O++#+@++",
"+#&&.OO++OOoO*&+@@#OOoOoOOO+@+++%oOOOOO@@++@+++++@#,*$@+O++#@O+O",
"+O@&%oo+@OOo$%+o+++&%+oOoOO+++OO+OOOOOO+@@@++++@###%@@++oO+++O+O",
"+Oo+#%@O+Ooo#+oO++O@%&OOOOoOO++OOooOOOO@@@@+OO@##@%&+@+OOO+@+OO+",
"OoXXO@*=@Oo++oO+@+oo@#@oOooOOOOoOoOoOO++++@+O@@@@++$#OOOo+@+OOOO",
"ooOOOO$-;O+@OO+@@Ooo++@OOOOOO+OooOOXoOOO+@+++@@+OOo+@%*OoO@++Ooo",
"+++OoO@$+O+oOo++@OOO+O++@OOoOOooOOOoooOo@#+++++O++OoO#=-OO+++OOO",
"###@+OO#OO@o+++@@@+OO+@@@OoOOO+oOOo@+oOOO++@+OO+@+oXo+$=o++@+O++",
"####+OO++++++@+#@@+O#+++OOoOOOOO+OO+$$#+++@@+OO++++oOo+$O+@++@@#",
"##@+O+OOO++@+@@#@@+O#$++oooOOO+@@O+oO@&&++@@@OO+O+++oO@OO$$+++@@",
"++++Ooo#+++@@+@#@@+O+$$ooXoO++@#++OOOO@&+@@@OOOOOooooooO+%#+O+++",
"Oo+oOOO+@#+++@@#@++O+#=OoooO@@@+oOO+Oo+%+@@@++OOOoOoXooO%$@OO++O",
"oo+OOooo+#O++@@@@OOO+#*:O++#@@OoXoOOOo+#+@++O++OOOOo+#%O%#+O$&+o",
"ooOOOooo+#OO+@+@+OOOO@&:OO+#+OoXXoO+OO+++++#O+OOoOOO+@$%$@++$%+O",
"oO+OoXooO@O+@@+OOOoooo#*&O+##OOXXoOO+OO++@++oOOOoOoO+@%&@O%++#+o",
"O+++OXOOO+####OoOOooXX+#XoOO$oo.XXo+O+OOO++OOOOoOO++#$#O#$&$O+OO",
"+@#OOXOO+@%##@OOOOoooX.XoOOOO+oX.oo+++OOO+Oo+Oo+XoOOoXOO+@###ooO",
"@@@OoOOO+@@#%$OoOoooOoXXO+OoOOo..Xo++@O+O+O$&@oooooOXOOOoOOo##++",
"#@+OooO++@+@+@@%%@OoooXoOO+O+Oo..oO@+OOO+O+$+++Oo.XoooOooooO@&+#",
"@+oooOO+@@+OoOO*+O+++ooO+O+%ooX.XO+#+++OOo$+O+OooooooooOOOoO@&:#",
"+OoOOO+@#@OOOO@%++@#+OOOOOO#&..Xo@##@+OooO#+++OXooOOoOOOOOOO+$=:",
"%ooO++@@@+%=-@++++@@+OO+++o+&#OO@@$#@OooO#&&+OooOoOXXOOOOO@oO@%;",
"&oOOO++@@#%*=**%@OO+OOoO++Oo+=&#@@@@OoooO+@&%@OO+OOoO+OO+@#@+@O#",
"oo+++@++OO@@###@&*+oooO+++++#$:#+++++oO+O+@@#*=++++++++Oo+O+O@Oo",
"O+@@+@++O+OO++++#%XooXOO+++@#$*,+O@@OO+++@@@+$-*O+++@+OOoXoo+$%@",
"$@####@@@OOOO++oO$oOOOOO+++@+@%>:=&@+@@@@##+O@%++++OOXoX. .o++#@",
"##@@+++##@OoO+oXX.oOOoOO+OO+OO$-&$@@+++@@#@+O+#@OOOoo..X.XXO+++&",
"##+OO+@@@OOO+OoXoOOOO++O+++ooO+*@@++O+++++++++++OOOoXXXXXXoOOO+#",
"#+OOoOO++OOoOoXooO+O++@+++OooO+@#+OoOOOOOO@OOO+OooOoXoooOOOOOO+#",
"@+OOOOOOOOOoOOoOO+O+O@@@@OOoOO@#@+OooOOOOO++OOO+O+OoXOOOOoOoO@#+",
"+OooOOOO++OXXoO+OoO+@@++OOO+O+@@+++o+OOO+@@+OOO+$#+OO%oOoooOOO*-",
";OOOO+++++OoOO++OOO+++++OO+#@@@++O+OOoO+@++OO++@#++++OOoooXoOO#*",
"-oooO++@@+O+++O@OOO+O%O+O@+#+@++OOOoXoO@@+OOO+OOO+++OooOOoo+@@@$",
"%Oo+OOO@@+++@+++++#,*%@+O++@@O+O+@&&XoO+++OoO*&++@#OoOOoo+++@+++",
"OOOOOOO+@@@@+O+@###%@+++OO+@+O+O+O@&%oO++OOo%%Oo++@%&+oOoOO++++O",
"OOoOOO+++@@+O+@##@%&O@+OoO+@+OO++Oo+@$++@Ooo$OoO++O@%&oOOOOoO+OO",
"ooOoO+++@+@+++@@@++%#+OOO+++OOOOOoooO@*=@Oo++oOO@+Oo@$@oOooOOOOo",
"ooOooOOO+@+++@@++Oo+@&*Oo++@+oOooOoOo+$--O@@oOO@@OoO++#OOOOOOOoo",
"OOOoooOo@#++++O+++Ooo#--OO+++OOO+O++oO@%+O+oOO+@++oO+O+++OOoOOOo",
"+Oo@+oOOO+++@OO+@OoXo+%=o+@++O++####@OO#OO+oO+@@@@+OO+@@@OOOOOOO",
"+OO+$$#O++@@+OO+++OOoo+$O+++@@@@####+OOOO+@++++#@@+O#++++ooOOOOO",
"@+OoO@%&@+@@+OO++++OoO@OO%$++++@#@@@+OOOO+@+@@@#@@++#$+OooOOOO+@",
"++OOOO@%+@@@+OOOOoooooOoO$#+O+@++OO+OOo#O++@++@#@@+O+$#OoXooO+@#",
"oO++Oo+%+@@@+++OOOooXoOO%$#OOOOOOoOoOoO+@#O++@@#@++O+#=Oooo+@@@+",
"XoOOOo+#+@O+O++OOoOOO#$O%#+O%&OOoo+OOooo@#OO+@@@@O+o+@*>OO+#@@+o",
"XXOO+O+++@+@OOOOoOOO+@$&%@++$$@oOoOOOoXo+@o++@+@+OOo+@&:oO+@++oX",
"Xo+OOOO++@++OOOOOOoO+@%&@O%++#OooO+OOXooO@++@@+OOOOooo#*&O+##OoX",
"XXoO++O+OOOOOoooOo++#$@O@$&$O+oOO+++oooO++#@##OoOOXXXoO$ooOO$ooX",
".oO+++OOOOOO+OO+XoOOooOO+@###OOO+@#+OoOO+@%##@+OOOoooX..o+OOO+o.",
" Xo+O@++O+O$&+oooXoOXoOooO+o##O+@@@OooO++@@#%$Oo+ooXooXXOOOOOOX.",
".oO@+OOO+O+$@++OO.XooOOoOooO+*+@#@+OoOO++@+@+@#&%@OoOoXoO++O+Oo.",
"XO@@++O+Oo$+O+OoooooooOOoOOO@&:#@+OooOO+#@+OOoO&@O++OooO+O+%OXX.",
"o+#@@OOOoo#+++OoooOOoOOOOOoO+$=:OOooOO+@#@OOOO@%++@#++OO+Oo#%..X",
"@###@Oooo#*&+OoooOooooOOOO+oO@%;&ooOO+@@@O%==@+@++@@+OO++Oo+&#OO",
"@@@@OoooO+@&&#OO+OOoO+O++@#@+@O@&oOOO++@@#&*==&%#oO+O+o++++o@*&@",
"@O@+OOOO++@@@**++OO+@+OOO++++@+ooO+++@@+OO+@##@#&*+oooo+@O++@$:#",
"OO@@OO+++@@@+$-*++++@OOOoXoo+#%#o++@+++++++OO@++@%XoooOO+++@#$=,"
};
